<svg preserveAspectRatio="none" overflow="visible" style="display: block;" width="40" height="40" viewBox="0 0 40 40" fill="none" xmlns="http://www.w3.org/2000/svg">
<g id="row/toggle">
<path id="Vector" d="M20 8.36364C21.6066 8.36364 22.9091 7.06119 22.9091 5.45455C22.9091 3.8479 21.6066 2.54545 20 2.54545C18.3934 2.54545 17.0909 3.8479 17.0909 5.45455C17.0909 7.06119 18.3934 8.36364 20 8.36364Z" fill="#E7520F"/>
<path id="Vector_2" d="M20 16.5455C21.6066 16.5455 22.9091 15.243 22.9091 13.6364C22.9091 12.0297 21.6066 10.7273 20 10.7273C18.3934 10.7273 17.0909 12.0297 17.0909 13.6364C17.0909 15.243 18.3934 16.5455 20 16.5455Z" fill="#E7520F"/>
<path id="Vector_3" d="M20 24.7273C21.6066 24.7273 22.9091 23.4248 22.9091 21.8182C22.9091 20.2115 21.6066 18.9091 20 18.9091C18.3934 18.9091 17.0909 20.2115 17.0909 21.8182C17.0909 23.4248 18.3934 24.7273 20 24.7273Z" fill="#E7520F"/>
<path id="Vector_4" d="M10.9091 22.9091C12.5157 22.9091 13.8182 21.6066 13.8182 20C13.8182 18.3934 12.5157 17.0909 10.9091 17.0909C9.30244 17.0909 8 18.3934 8 20C8 21.6066 9.30244 22.9091 10.9091 22.9091Z" fill="#E7520F"/>
<path id="Vector_5" d="M29.0909 22.9091C30.6976 22.9091 32 21.6066 32 20C32 18.3934 30.6976 17.0909 29.0909 17.0909C27.4843 17.0909 26.1818 18.3934 26.1818 20C26.1818 21.6066 27.4843 22.9091 29.0909 22.9091Z" fill="#E7520F"/>
<path id="Vector_6" d="M15 29.7273C16.6066 29.7273 17.9091 28.4248 17.9091 26.8182C17.9091 25.2115 16.6066 23.9091 15 23.9091C13.3934 23.9091 12.0909 25.2115 12.0909 26.8182C12.0909 28.4248 13.3934 29.7273 15 29.7273Z" fill="#E7520F"/>
<path id="Vector_7" d="M25 29.7273C26.6066 29.7273 27.9091 28.4248 27.9091 26.8182C27.9091 25.2115 26.6066 23.9091 25 23.9091C23.3934 23.9091 22.0909 25.2115 22.0909 26.8182C22.0909 28.4248 23.3934 29.7273 25 29.7273Z" fill="#E7520F"/>
<path id="Vector_8" d="M20 35.6364C21.6066 35.6364 22.9091 34.3339 22.9091 32.7273C22.9091 31.1206 21.6066 29.8182 20 29.8182C18.3934 29.8182 17.0909 31.1206 17.0909 32.7273C17.0909 34.3339 18.3934 35.6364 20 35.6364Z" fill="#E7520F"/>
</g>
</svg>
