<svg preserveAspectRatio="none" overflow="visible" style="display: block;" width="30" height="30" viewBox="0 0 30 30" fill="none" xmlns="http://www.w3.org/2000/svg">
<g id="icon">
<path id="Vector" d="M3.12494 8.74941C2.25171 12.8703 2.25171 17.1285 3.12494 21.2494C3.23967 21.6679 3.46136 22.0493 3.76819 22.3562C4.07503 22.663 4.45645 22.8847 4.87494 22.9994C11.5792 24.1103 18.4206 24.1103 25.1249 22.9994C25.5434 22.8847 25.9248 22.663 26.2317 22.3562C26.5385 22.0493 26.7602 21.6679 26.8749 21.2494C27.7482 17.1285 27.7482 12.8703 26.8749 8.74941C26.7602 8.33093 26.5385 7.94951 26.2317 7.64267C25.9248 7.33584 25.5434 7.11415 25.1249 6.99941C18.4206 5.88874 11.5792 5.88874 4.87494 6.99941C4.45645 7.11415 4.07503 7.33584 3.76819 7.64267C3.46136 7.94951 3.23967 8.33093 3.12494 8.74941Z" stroke="#E7520F" stroke-width="2.1875" stroke-linecap="round" stroke-linejoin="round"/>
<path id="Vector_2" d="M12.5 18.75L18.75 15L12.5 11.25V18.75Z" stroke="#E7520F" stroke-width="2.1875" stroke-linecap="round" stroke-linejoin="round"/>
</g>
</svg>
